<?xml version="1.0" encoding="UTF-8" standalone="no"?>
<svg
   version="1.1"
   width="256"
   height="256"
   viewBox="0 0 256 256">
<path
   id="path1"
   style="stroke:none;"
   d="M 127.85742 1.40625 C 58.020495 1.40625 1.40625 58.020495 1.40625 127.85742 C 1.40625 197.69435 58.020495 254.30664 127.85742 254.30664 C 197.69435 254.30664 254.30664 197.69435 254.30664 127.85742 C 254.30664 58.020495 197.69435 1.40625 127.85742 1.40625 z M 64.865234 65.052734 C 71.400592 65.151787 79.477438 69.256696 85.642578 73.884766 C 102.73019 86.712416 121.11061 112.72437 127.85742 126.68164 C 134.60704 112.72437 152.9827 86.712416 170.07031 73.884766 C 182.40059 64.628626 202.37695 57.466759 202.37695 80.255859 C 202.37695 84.808059 199.76692 118.49072 198.23828 123.95898 C 192.91895 142.97144 173.53403 147.81841 156.28906 144.88477 C 186.43193 150.01583 194.09925 167.00793 177.53711 184 C 146.08759 216.27285 132.33233 175.9022 128.80859 165.55859 C 128.16229 163.66184 127.86304 162.77341 127.85742 163.5293 C 127.85142 162.77622 127.5506 163.66184 126.9043 165.55859 C 123.38056 175.9022 109.62811 216.27285 78.175781 184 C 61.616451 167.00793 69.282911 150.01302 99.425781 144.88477 C 82.180811 147.81841 62.793939 142.97144 57.474609 123.95898 C 55.943159 118.49072 53.335938 84.808059 53.335938 80.255859 C 53.335938 68.861309 58.329877 64.953682 64.865234 65.052734 z " />
</svg>
